<svg width="8" height="13" viewBox="0 0 8 13" fill="none" xmlns="http://www.w3.org/2000/svg">
<path d="M1.65625 5.59375H4.15625V12.3125" stroke="white" stroke-linecap="round" stroke-linejoin="round"/>
<path d="M1.30469 12.4688H6.69531" stroke="white" stroke-miterlimit="10" stroke-linecap="round"/>
<path d="M4.00001 3.24999C3.75278 3.24999 3.5111 3.17667 3.30554 3.03932C3.09998 2.90197 2.93976 2.70675 2.84515 2.47834C2.75054 2.24993 2.72579 1.9986 2.77402 1.75612C2.82225 1.51365 2.9413 1.29092 3.11612 1.1161C3.29094 0.941286 3.51366 0.822235 3.75614 0.774004C3.99862 0.725772 4.24995 0.750526 4.47836 0.845136C4.70677 0.939745 4.90199 1.09996 5.03935 1.30552C5.1767 1.51108 5.25001 1.75276 5.25001 1.99999C5.25001 2.33151 5.11831 2.64945 4.88389 2.88387C4.64947 3.11829 4.33153 3.24999 4.00001 3.24999Z" fill="white"/>
</svg>
