<svg width="13" height="13" viewBox="0 0 13 13" fill="none" xmlns="http://www.w3.org/2000/svg">
<path d="M5.92019 2.15967H2.09338C1.8034 2.15967 1.52529 2.27486 1.32024 2.47991C1.11519 2.68496 1 2.96306 1 3.25304V10.9067C1 11.1967 1.11519 11.4748 1.32024 11.6798C1.52529 11.8849 1.8034 12.0001 2.09338 12.0001H9.74701C10.037 12.0001 10.3151 11.8849 10.5201 11.6798C10.7252 11.4748 10.8404 11.1967 10.8404 10.9067V7.07986" stroke="#78808B" stroke-width="1.1" stroke-linecap="round" stroke-linejoin="round"/>
<path d="M10.0205 1.33967C10.238 1.12218 10.533 1 10.8405 1C11.1481 1 11.4431 1.12218 11.6606 1.33967C11.8781 1.55715 12.0002 1.85213 12.0002 2.1597C12.0002 2.46727 11.8781 2.76225 11.6606 2.97973L6.46703 8.17327L4.28027 8.71996L4.82696 6.53321L10.0205 1.33967Z" stroke="#78808B" stroke-width="1.1" stroke-linecap="round" stroke-linejoin="round"/>
</svg>
