<svg width="90" height="90" viewBox="0 0 90 90" fill="none" xmlns="http://www.w3.org/2000/svg">
<path d="M0 0H45C69.8528 0 90 20.1472 90 45C90 69.8528 69.8528 90 45 90C20.1472 90 0 69.8528 0 45V0Z" fill="#E0E5EC"/>
<path d="M28.8008 49.3516C31.4082 49.3516 33.5176 47.2422 33.5176 44.6348C33.5176 41.998 31.4082 39.918 28.8008 39.918C26.1641 39.918 24.084 41.998 24.084 44.6348C24.084 47.2422 26.1641 49.3516 28.8008 49.3516Z" fill="white"/>
<path d="M45.5 49.3516C48.1074 49.3516 50.2168 47.2422 50.2168 44.6348C50.2168 41.998 48.1074 39.918 45.5 39.918C42.8633 39.918 40.7832 41.998 40.7832 44.6348C40.7832 47.2422 42.8633 49.3516 45.5 49.3516Z" fill="white"/>
<path d="M62.1992 49.3516C64.8066 49.3516 66.916 47.2422 66.916 44.6348C66.916 41.998 64.8066 39.918 62.1992 39.918C59.5625 39.918 57.4824 41.998 57.4824 44.6348C57.4824 47.2422 59.5625 49.3516 62.1992 49.3516Z" fill="white"/>
</svg>
