<svg width="127" height="28" viewBox="0 0 127 28" fill="none" xmlns="http://www.w3.org/2000/svg">
<path d="M0 4H12C18.6274 4 24 9.37258 24 16C24 22.6274 18.6274 28 12 28C5.37258 28 0 22.6274 0 16V4Z" fill="#0363F3"/>
<g clip-path="url(#clip0)">
<path d="M10.7074 20.0826C10.602 20.1886 10.4582 20.2477 10.3089 20.2477C10.1595 20.2477 10.0158 20.1886 9.91037 20.0826L6.7277 16.8994C6.39741 16.5691 6.39741 16.0335 6.7277 15.7038L7.12622 15.3052C7.45661 14.9749 7.99158 14.9749 8.32187 15.3052L10.3089 17.2923L15.6781 11.923C16.0085 11.5927 16.544 11.5927 16.8737 11.923L17.2723 12.3216C17.6026 12.6519 17.6026 13.1874 17.2723 13.5172L10.7074 20.0826Z" fill="white"/>
</g>
<path d="M32.9277 21H35.7793V15.1504C35.7793 13.6758 36.5996 12.8164 38.0059 12.8164C38.416 12.8164 38.8066 12.8848 39.041 12.9824V10.4727C38.8457 10.4141 38.5625 10.3652 38.2305 10.3652C37 10.3652 36.1113 11.0879 35.7402 12.416H35.6816V10.5312H32.9277V21ZM43.9586 12.416C45.2281 12.416 46.0973 13.334 46.1559 14.6719H41.7125C41.8102 13.3633 42.7086 12.416 43.9586 12.416ZM46.1949 17.7969C45.9313 18.5977 45.1305 19.1152 44.0855 19.1152C42.6305 19.1152 41.6832 18.0898 41.6832 16.5957V16.4199H48.9V15.5508C48.9 12.3672 46.9762 10.3066 43.9293 10.3066C40.8336 10.3066 38.8805 12.4746 38.8805 15.8145C38.8805 19.1641 40.8141 21.2246 44.0367 21.2246C46.6246 21.2246 48.4996 19.8477 48.8121 17.7969H46.1949ZM59.1887 10.5312H56.2102L54.0422 18.4805H53.9836L51.8059 10.5312H48.7492L52.3723 21H55.5949L59.1887 10.5312ZM59.6336 21H62.4852V10.5312H59.6336V21ZM61.0594 9.37891C61.9188 9.37891 62.5828 8.72461 62.5828 7.9043C62.5828 7.07422 61.9188 6.42969 61.0594 6.42969C60.2 6.42969 59.5359 7.07422 59.5359 7.9043C59.5359 8.72461 60.2 9.37891 61.0594 9.37891ZM63.6137 13.6074C63.6137 15.1504 64.6293 16.1855 66.6117 16.6348L68.5453 17.0645C69.4828 17.2891 69.8344 17.582 69.8344 18.1094C69.8344 18.793 69.1801 19.2227 68.0961 19.2227C66.9633 19.2227 66.2699 18.7148 66.1332 17.8359H63.35C63.5063 19.877 65.225 21.2246 68.018 21.2246C70.7816 21.2246 72.6762 19.8672 72.6762 17.8066C72.6762 16.2441 71.8266 15.4141 69.727 14.9453L67.725 14.5156C66.807 14.3008 66.3578 13.9492 66.3578 13.4316C66.3578 12.7578 67.0023 12.3086 67.9887 12.3086C69.0434 12.3086 69.7172 12.8262 69.7758 13.666H72.4027C72.3637 11.6348 70.6547 10.3066 68.0277 10.3066C65.3422 10.3066 63.6137 11.6152 63.6137 13.6074ZM73.5508 21H76.4023V10.5312H73.5508V21ZM74.9766 9.37891C75.8359 9.37891 76.5 8.72461 76.5 7.9043C76.5 7.07422 75.8359 6.42969 74.9766 6.42969C74.1172 6.42969 73.4531 7.07422 73.4531 7.9043C73.4531 8.72461 74.1172 9.37891 74.9766 9.37891ZM82.5113 21.2246C85.6754 21.2246 87.6969 19.2031 87.6969 15.7559C87.6969 12.3574 85.6461 10.3066 82.5113 10.3066C79.3766 10.3066 77.3258 12.3672 77.3258 15.7559C77.3258 19.1934 79.3473 21.2246 82.5113 21.2246ZM82.5113 19.0469C81.1051 19.0469 80.2164 17.8652 80.2164 15.7656C80.2164 13.6855 81.1246 12.4844 82.5113 12.4844C83.898 12.4844 84.7965 13.6855 84.7965 15.7656C84.7965 17.8652 83.9078 19.0469 82.5113 19.0469ZM88.5715 21H91.423V14.9941C91.423 13.6367 92.2336 12.6992 93.5129 12.6992C94.7922 12.6992 95.4367 13.4805 95.4367 14.8477V21H98.2883V14.252C98.2883 11.8008 96.9797 10.3359 94.6555 10.3359C93.0441 10.3359 91.9406 11.0977 91.384 12.3965H91.3254V10.5312H88.5715V21ZM103.538 19.1055C102.571 19.1055 101.927 18.6172 101.927 17.8359C101.927 17.0938 102.532 16.6152 103.596 16.5371L105.804 16.4004V17.1621C105.804 18.2949 104.778 19.1055 103.538 19.1055ZM102.6 21.166C103.909 21.166 105.208 20.5117 105.794 19.3984H105.852V21H108.606V13.8027C108.606 11.6934 106.858 10.3066 104.173 10.3066C101.399 10.3066 99.6707 11.7031 99.5633 13.7344H102.171C102.307 12.9629 102.981 12.4355 104.046 12.4355C105.12 12.4355 105.804 13.002 105.804 13.9785V14.6719L103.167 14.8281C100.559 14.9844 99.0945 16.0879 99.0945 17.9922C99.0945 19.877 100.608 21.166 102.6 21.166ZM109.852 21H112.704V15.1504C112.704 13.6758 113.524 12.8164 114.93 12.8164C115.34 12.8164 115.731 12.8848 115.965 12.9824V10.4727C115.77 10.4141 115.487 10.3652 115.155 10.3652C113.924 10.3652 113.036 11.0879 112.664 12.416H112.606V10.5312H109.852V21ZM117.875 24.877C120.551 24.877 121.859 23.9199 122.758 21.2344L126.361 10.5312H123.354L121.127 18.7148H121.078L118.852 10.5312H115.717L119.359 21.0098C119.379 21.0488 119.271 21.4688 119.271 21.5078C119.076 22.3379 118.559 22.6699 117.514 22.6699C117.406 22.6699 116.889 22.6699 116.801 22.6504V24.8477C116.889 24.8672 117.777 24.877 117.875 24.877Z" fill="#1B2537"/>
<defs>
<clipPath id="clip0">
<rect width="11.04" height="11.04" fill="white" transform="translate(6.47998 10.4385)"/>
</clipPath>
</defs>
</svg>
