<svg width="13" height="13" viewBox="0 0 13 13" fill="none" xmlns="http://www.w3.org/2000/svg">
<path d="M12.7714 5.34918L0.533127 0.0313672C0.38967 -0.0309922 0.222675 0.000771519 0.112048 0.111373C0.00144688 0.222 -0.0302914 0.388994 0.0320426 0.532477L5.34986 12.7707C5.41054 12.9104 5.54816 12.9998 5.69905 12.9998C5.70624 12.9998 5.71348 12.9996 5.72066 12.9992C5.87994 12.9902 6.01672 12.8829 6.06336 12.7303L7.2037 9.0018C7.46749 8.13928 8.13993 7.46683 9.00248 7.20305L12.731 6.06271C12.8835 6.01604 12.9908 5.87926 12.9998 5.72001C13.0089 5.56076 12.9177 5.41276 12.7714 5.34918ZM8.77972 6.47462C7.67472 6.81257 6.81327 7.67405 6.47532 8.77902L5.63697 11.5201L1.11571 1.11504L11.5208 5.63627L8.77972 6.47462Z" fill="white"/>
</svg>
