<svg width="15" height="15" viewBox="0 0 15 15" fill="none" xmlns="http://www.w3.org/2000/svg">
<path d="M14.5605 3.10327C14.8032 3.10327 15 2.90651 15 2.66382V0.439453C15 0.196758 14.8032 0 14.5605 0H12.3362C12.0935 0 11.8967 0.196758 11.8967 0.439453V1.1122H3.10327V0.439453C3.10327 0.196758 2.90651 0 2.66382 0H0.439453C0.196758 0 0 0.196758 0 0.439453V2.66382C0 2.90651 0.196758 3.10327 0.439453 3.10327H1.1122V11.8967H0.439453C0.196758 11.8967 0 12.0935 0 12.3362V14.5605C0 14.8032 0.196758 15 0.439453 15H2.66382C2.90651 15 3.10327 14.8032 3.10327 14.5605V13.8878H11.8967V14.5605C11.8967 14.8032 12.0935 15 12.3362 15H14.5605C14.8032 15 15 14.8032 15 14.5605V12.3362C15 12.0935 14.8032 11.8967 14.5605 11.8967H13.8878V3.10327H14.5605ZM12.7756 0.878906H14.1211V2.22437H12.7756V0.878906ZM0.878906 0.878906H2.22437V2.22437H0.878906V0.878906ZM2.22437 14.1211H0.878906V12.7756H2.22437V14.1211ZM14.1211 14.1211H12.7756V12.7756H14.1211V14.1211ZM13.0089 11.8967H12.3362C12.0935 11.8967 11.8967 12.0935 11.8967 12.3362V13.0089H3.10327V12.3362C3.10327 12.0935 2.90651 11.8967 2.66382 11.8967H1.9911V3.10327H2.66382C2.90651 3.10327 3.10327 2.90651 3.10327 2.66382V1.9911H11.8967V2.66382C11.8967 2.90651 12.0935 3.10327 12.3362 3.10327H13.0089V11.8967Z" fill="white"/>
</svg>
