<svg width="15" height="15" viewBox="0 0 15 15" fill="none" xmlns="http://www.w3.org/2000/svg">
<path d="M7.5 0C3.35814 0 0 2.93811 0 6.5625C0 8.63392 1.09922 10.478 2.8125 11.6808V15L6.09797 13.0064C6.55267 13.0814 7.02047 13.125 7.5 13.125C11.6424 13.125 15 10.1869 15 6.5625C15 2.93811 11.6424 0 7.5 0ZM7.5 12.1875C6.9525 12.1875 6.42375 12.1237 5.91561 12.0155L3.70873 13.342L3.73826 11.168C2.04657 10.1503 0.9375 8.46846 0.9375 6.5625C0.9375 3.4561 3.87561 0.9375 7.5 0.9375C11.1244 0.9375 14.0625 3.4561 14.0625 6.5625C14.0625 9.6689 11.1244 12.1875 7.5 12.1875Z" fill="white"/>
</svg>
